<svg width="40" height="40" viewBox="0 0 40 40" fill="none" xmlns="http://www.w3.org/2000/svg">
    <path fill-rule="evenodd" clip-rule="evenodd" d="M19.9999 23.5366L28.8382 32.3749C29.3072 32.8439 29.9433 33.1074 30.6066 33.1074C31.2698 33.1074 31.9059 32.8439 32.3749 32.3749C32.8439 31.9059 33.1074 31.2699 33.1074 30.6066C33.1074 29.9434 32.8439 29.3073 32.3749 28.8383L23.5332 19.9999L32.3732 11.1616C32.6054 10.9294 32.7895 10.6537 32.915 10.3504C33.0406 10.047 33.1052 9.72185 33.1051 9.39352C33.105 9.06518 33.0403 8.74008 32.9146 8.43677C32.7889 8.13346 32.6046 7.85788 32.3724 7.62577C32.1402 7.39366 31.8645 7.20956 31.5612 7.08399C31.2578 6.95841 30.9327 6.89382 30.6043 6.89389C30.276 6.89397 29.9509 6.95872 29.6476 7.08444C29.3443 7.21016 29.0687 7.39439 28.8366 7.62661L19.9999 16.4649L11.1616 7.62661C10.9311 7.38772 10.6553 7.19714 10.3504 7.06598C10.0454 6.93481 9.71739 6.86569 9.38544 6.86265C9.0535 6.85961 8.72427 6.92271 8.41697 7.04827C8.10967 7.17383 7.83046 7.35933 7.59562 7.59395C7.36077 7.82857 7.17501 8.10761 7.04916 8.41479C6.92332 8.72197 6.85991 9.05114 6.86263 9.38309C6.86536 9.71503 6.93417 10.0431 7.06505 10.3482C7.19592 10.6533 7.38625 10.9292 7.62491 11.1599L16.4666 19.9999L7.62658 28.8399C7.38791 29.0707 7.19759 29.3466 7.06671 29.6517C6.93584 29.9568 6.86703 30.2848 6.8643 30.6168C6.86157 30.9487 6.92498 31.2779 7.05083 31.5851C7.17668 31.8923 7.36244 32.1713 7.59728 32.4059C7.83212 32.6405 8.11134 32.826 8.41864 32.9516C8.72594 33.0772 9.05516 33.1403 9.38711 33.1372C9.71905 33.1342 10.0471 33.0651 10.352 32.9339C10.657 32.8027 10.9327 32.6122 11.1632 32.3733L19.9999 23.5366Z" fill="#F2D95D"/>
</svg>