<svg width="203" height="88" viewBox="0 0 203 88" fill="none" xmlns="http://www.w3.org/2000/svg">
<g clip-path="url(#clip0_643_1968)">
<path d="M41.3196 19.0652L41.3342 22.7813C51.2772 30.155 54.166 32.3056 54.166 32.3203C54.1709 32.3349 53.4645 32.6714 52.5974 33.0713C51.7351 33.4663 50.9946 33.7833 50.9557 33.7687C50.9167 33.754 48.7439 32.1106 46.1328 30.1111C43.5216 28.1116 41.3683 26.4877 41.344 26.4974C41.3245 26.5072 41.3099 28.1701 41.3099 30.1842L41.305 33.8565C41.6314 34.1588 42.3768 34.7928 43.1708 35.4658C43.9698 36.1339 44.6031 36.6996 44.5836 36.7191C44.5641 36.7337 43.8382 37.08 42.9662 37.4848C42.0942 37.8944 41.3488 38.2163 41.3099 38.2065C41.2709 38.1968 36.8036 35.1878 31.3815 31.5254L21.5311 24.8588C15.4124 27.8434 15.1932 27.9604 15.2809 28.0287C15.3344 28.0677 16.83 29.087 18.5984 30.2964L21.8234 32.491V59.4107L28.1809 63.7169C28.2004 41.4155 28.2198 36.9044 28.2539 36.9044C28.2783 36.9044 29.7008 37.8554 31.4108 39.021L34.514 41.1375L34.5627 67.8183C39.7363 71.5344 41.2709 72.6219 41.3099 72.6365C41.3488 72.6511 46.503 70.3396 52.7582 67.5062C59.0133 64.6679 64.2552 62.2636 64.4013 62.1661C64.5475 62.0637 64.8056 61.8442 64.9664 61.6735C65.132 61.5028 65.4 61.1517 65.5656 60.8981C65.7313 60.6445 65.9602 60.2056 66.082 59.9228C66.1989 59.6399 66.3499 59.201 66.4181 58.9474C66.4815 58.6938 66.5594 58.2988 66.5935 58.0696C66.6325 57.777 66.6422 55.6654 66.6325 50.7788C66.6179 44.3708 66.613 43.888 66.5351 43.6831C66.4864 43.5612 66.3743 43.3759 66.2915 43.2735C66.2038 43.1711 66.0479 43.0443 65.9456 42.9955C65.8482 42.9419 65.6387 42.8834 65.4828 42.859C65.3172 42.8297 65.059 42.8297 64.8397 42.859C64.64 42.8834 64.3185 42.9468 64.1334 43.0053C63.9482 43.0589 60.2945 44.7073 56.0221 46.6677C51.7497 48.6233 48.2373 50.2424 48.2178 50.257C48.1983 50.2765 49.6452 51.2909 51.4282 52.5101C53.2161 53.7293 54.6873 54.7339 54.7019 54.7437C54.7165 54.7485 55.9685 54.1877 57.4836 53.4952C58.9987 52.7978 60.2409 52.2321 60.2507 52.237C60.2604 52.237 60.2312 52.8222 60.1874 53.5342C60.1484 54.2462 60.1045 54.9777 60.0899 55.1679C60.0753 55.4215 60.0266 55.5971 59.9048 55.8507C59.8122 56.036 59.632 56.3237 59.5005 56.4847C59.3641 56.6456 59.0718 56.9236 58.8477 57.0991C58.6187 57.2747 58.2241 57.5478 57.9708 57.699C57.7175 57.8502 57.2254 58.1037 56.8747 58.2598C56.5239 58.4207 55.7591 58.767 55.1696 59.0352C54.5801 59.3034 53.0651 59.9911 51.8082 60.5665C50.5513 61.1469 48.3981 62.0783 47.034 62.644C45.67 63.2097 43.8382 63.9656 42.9662 64.3265C42.0942 64.6825 41.3683 64.9702 41.344 64.9605C41.3245 64.9556 41.3099 60.6397 41.3099 55.3728V45.8045C41.5924 45.6631 46.7174 43.2979 52.8799 40.4547C59.0425 37.6116 64.3039 35.1586 64.5669 35.0074C64.8349 34.8562 65.1564 34.6416 65.2879 34.5246C65.4438 34.388 65.5364 34.2612 65.5705 34.1344C65.6046 33.993 65.5997 33.915 65.5266 33.7589C65.4779 33.6516 65.3854 33.5151 65.322 33.4566C65.2587 33.398 59.8463 29.3016 53.294 24.3516C46.7417 19.4017 41.3683 15.3491 41.344 15.3491C41.3245 15.3491 41.3147 17.0219 41.3196 19.0652ZM146.225 23.4543C146.157 23.5177 144.822 25.0246 143.248 26.8095L140.394 30.0526L140.398 61.2395H146.975C146.975 59.3132 146.99 58.7524 147.009 58.7524C147.034 58.7524 147.136 58.8792 147.248 59.0303C147.355 59.1864 147.604 59.4546 147.798 59.6302C147.993 59.8057 148.339 60.074 148.573 60.23C148.807 60.3861 149.216 60.6202 149.484 60.7518C149.752 60.8835 150.205 61.0688 150.492 61.1615C150.785 61.259 151.286 61.3956 151.613 61.4638C152.115 61.5711 152.383 61.5955 153.284 61.615C154.132 61.6345 154.477 61.6248 154.94 61.5565C155.262 61.5126 155.807 61.4053 156.158 61.3127C156.504 61.2249 157.02 61.0591 157.303 60.9518C157.585 60.8445 158.034 60.6445 158.302 60.5031C158.57 60.3666 158.998 60.1179 159.252 59.952C159.505 59.7814 159.88 59.5131 160.08 59.3522C160.279 59.1913 160.62 58.884 160.835 58.6695C161.049 58.4598 161.361 58.1233 161.522 57.9233C161.687 57.7234 161.97 57.3381 162.15 57.0699C162.33 56.8017 162.637 56.2506 162.832 55.8507C163.032 55.4459 163.266 54.89 163.363 54.6071C163.456 54.3243 163.602 53.8219 163.68 53.4854C163.763 53.149 163.86 52.6369 163.904 52.3394C163.948 52.0419 164.001 51.4518 164.021 51.0227C164.045 50.5935 164.045 49.8913 164.021 49.4621C164.001 49.033 163.948 48.4429 163.904 48.1454C163.86 47.8479 163.763 47.3358 163.68 46.9993C163.602 46.6628 163.456 46.1605 163.363 45.8777C163.266 45.5948 163.032 45.034 162.832 44.6341C162.637 44.2293 162.33 43.6831 162.15 43.4149C161.97 43.1467 161.687 42.7614 161.522 42.5615C161.361 42.3615 161.03 42.0007 160.786 41.7617C160.547 41.5276 160.124 41.1619 159.856 40.957C159.583 40.7522 159.135 40.4499 158.857 40.284C158.579 40.1182 158.121 39.8793 157.839 39.7525C157.556 39.6306 157.074 39.4452 156.767 39.3428C156.46 39.2404 155.915 39.099 155.559 39.0307C155.208 38.9624 154.614 38.8844 154.244 38.8649C153.878 38.8405 153.289 38.8405 152.943 38.86C152.592 38.8795 152.11 38.9332 151.871 38.9722C151.627 39.0161 151.223 39.1039 150.97 39.1721C150.717 39.2453 150.278 39.3916 149.995 39.5038C149.713 39.6159 149.299 39.8159 149.07 39.9475C148.841 40.0743 148.515 40.284 148.339 40.4108C148.164 40.5328 147.891 40.7571 147.73 40.9083C147.569 41.0594 147.35 41.3082 147.243 41.4593C147.136 41.6105 147.034 41.7324 147.009 41.7324C146.99 41.7324 146.97 37.6506 146.96 32.6665L146.951 23.6006C146.741 23.3812 146.658 23.347 146.527 23.347C146.41 23.347 146.303 23.386 146.225 23.4543ZM73.0728 33.8565V36.9044L79.9661 36.9288L79.9905 60.8006H86.6646V36.9044H93.5822V30.8085H73.0728V33.8565ZM136.696 31.9399C136.633 31.9691 135.347 33.4858 133.836 35.3049L131.094 38.6113V41.7324C130.904 41.7373 130.821 41.6593 130.68 41.4593C130.572 41.3082 130.319 41.0253 130.114 40.8351C129.915 40.6449 129.554 40.3572 129.311 40.2011C129.072 40.0402 128.658 39.8061 128.39 39.6793C128.122 39.5476 127.674 39.3672 127.391 39.2745C127.109 39.1819 126.646 39.06 126.354 39.0063C126.066 38.9478 125.53 38.8844 125.16 38.8551C124.717 38.8259 124.269 38.8259 123.835 38.8551C123.474 38.8844 122.992 38.938 122.763 38.9819C122.534 39.021 122.106 39.1185 121.813 39.1965C121.516 39.2745 121.068 39.416 120.815 39.5135C120.561 39.611 120.108 39.811 119.816 39.9622C119.519 40.1085 119.095 40.3523 118.866 40.4986C118.637 40.6498 118.267 40.9131 118.038 41.0936C117.814 41.2691 117.439 41.6008 117.21 41.83C116.981 42.0592 116.654 42.4201 116.484 42.6346C116.313 42.8492 116.04 43.2247 115.88 43.4637C115.719 43.7027 115.47 44.1221 115.329 44.3903C115.188 44.6585 114.973 45.1315 114.852 45.4388C114.73 45.746 114.555 46.2727 114.462 46.6092C114.374 46.9457 114.252 47.4919 114.194 47.8284C114.14 48.1649 114.072 48.7013 114.043 49.0232C114.019 49.3451 113.994 49.8913 113.994 50.2424C113.994 50.5886 114.019 51.1397 114.043 51.4616C114.072 51.7835 114.131 52.2565 114.17 52.5101C114.209 52.7637 114.311 53.2465 114.394 53.583C114.472 53.9195 114.628 54.4315 114.735 54.729C114.842 55.0265 115.056 55.5288 115.212 55.8507C115.373 56.1725 115.651 56.6651 115.836 56.948C116.021 57.2308 116.284 57.6014 116.42 57.777C116.562 57.9526 116.898 58.3232 117.175 58.5963C117.448 58.8743 117.882 59.2644 118.135 59.4546C118.388 59.6497 118.783 59.9277 119.012 60.0691C119.241 60.2105 119.689 60.4592 120.011 60.6104C120.332 60.7665 120.893 60.9908 121.253 61.1127C121.613 61.2298 122.13 61.3712 122.398 61.4297C122.666 61.4833 123.104 61.5516 123.372 61.5858C123.674 61.6199 124.22 61.6345 124.809 61.615C125.36 61.6004 125.935 61.5565 126.173 61.5126C126.402 61.4687 126.782 61.3809 127.026 61.3127C127.265 61.2493 127.649 61.1225 127.878 61.0298C128.107 60.9371 128.424 60.7957 128.585 60.7128C128.746 60.6348 129.087 60.43 129.34 60.2593C129.593 60.0886 129.963 59.796 130.158 59.6058C130.358 59.4205 130.592 59.1474 130.684 59.0059C130.811 58.8109 130.879 58.7524 130.972 58.7524H131.094C131.094 60.1227 131.069 60.4543 131.001 60.7762C130.952 61.0152 130.85 61.3663 130.767 61.5565C130.689 61.7418 130.538 62.0295 130.436 62.1905C130.329 62.3514 130.09 62.6391 129.9 62.8293C129.715 63.0195 129.418 63.2682 129.242 63.3853C129.067 63.5023 128.707 63.7023 128.439 63.8291C128.171 63.9559 127.752 64.1217 127.513 64.19C127.269 64.2582 126.821 64.3606 126.514 64.4192C126.125 64.4874 125.652 64.5265 124.955 64.5411C124.215 64.5606 123.762 64.546 123.202 64.4826C122.788 64.4387 122.179 64.3509 121.847 64.2826C121.521 64.2192 121.019 64.0875 120.727 63.9949C120.439 63.9022 120.059 63.7462 119.874 63.6535L119.548 63.4828V68.7497C120.21 69.0814 120.595 69.2472 120.839 69.3301C121.078 69.4081 121.516 69.5349 121.813 69.5983C122.106 69.6666 122.656 69.7641 123.031 69.8177C123.406 69.8714 124.083 69.9445 124.541 69.9738C125.024 70.0079 125.788 70.0177 126.368 70.0031C126.919 69.9884 127.64 69.9397 127.976 69.9007C128.312 69.8616 128.823 69.7787 129.121 69.7251C129.413 69.6714 129.939 69.5446 130.29 69.4471C130.636 69.3545 131.162 69.1838 131.459 69.0667C131.751 68.9546 132.204 68.7546 132.458 68.6278C132.711 68.501 133.096 68.2864 133.31 68.1499C133.525 68.0182 133.831 67.8085 133.992 67.6866C134.153 67.5647 134.426 67.3404 134.596 67.194C134.767 67.0429 135.074 66.7356 135.273 66.5064C135.473 66.2772 135.79 65.8627 135.975 65.5798C136.165 65.297 136.413 64.8825 136.525 64.6532C136.638 64.424 136.813 64.0193 136.915 63.751C137.018 63.4828 137.169 62.9756 137.256 62.6294C137.344 62.2783 137.456 61.7564 137.505 61.459C137.592 60.9469 137.597 60.23 137.607 46.6336C137.622 35.1829 137.612 32.3154 137.563 32.2032C137.529 32.1301 137.432 32.0228 137.354 31.974C137.271 31.9253 137.12 31.8862 137.013 31.8862C136.905 31.8862 136.764 31.9106 136.696 31.9399ZM100.451 38.4991C100.359 38.5089 100.052 38.5479 99.7692 38.5918C99.4866 38.6357 99.0774 38.7088 98.8533 38.7625C98.6341 38.8113 98.2054 38.9332 97.9034 39.0307C97.6062 39.1282 97.1288 39.3087 96.8462 39.4257C96.5637 39.5428 96.1496 39.7427 95.9206 39.8646C95.6917 39.9914 95.3214 40.2109 95.0924 40.3572C94.8635 40.5035 94.4591 40.7912 94.1961 40.996C93.9281 41.2009 93.4751 41.5959 93.1925 41.8787C92.91 42.1616 92.5349 42.5664 92.3595 42.7809C92.189 42.9955 91.8869 43.41 91.6921 43.7075C91.4923 44.0001 91.1952 44.5268 91.0247 44.878C90.8493 45.2242 90.6106 45.8094 90.4936 46.1703C90.3719 46.5312 90.2208 47.1018 90.1526 47.4383C90.0844 47.7748 90.0016 48.3648 89.9724 48.755C89.9334 49.2817 89.9334 49.6523 89.9724 50.1936C90.0016 50.5935 90.0601 51.1007 90.0942 51.3153C90.1331 51.5299 90.2111 51.9151 90.2695 52.1687C90.3329 52.4223 90.4742 52.9051 90.5862 53.2416C90.7031 53.5781 90.8882 54.0609 91.0003 54.3145C91.1123 54.5681 91.3121 54.9875 91.4485 55.2411C91.5849 55.4947 91.809 55.8799 91.9405 56.0945C92.0721 56.3091 92.3643 56.7236 92.5836 57.0211C92.8077 57.3186 93.1682 57.7526 93.3923 57.9916C93.6163 58.2305 94.0109 58.6012 94.2643 58.8158C94.5176 59.0255 94.9658 59.362 95.263 59.557C95.5552 59.7521 95.9839 60.0106 96.2129 60.1325C96.4419 60.2544 96.8803 60.4543 97.1872 60.5763C97.4941 60.6982 98.0446 60.8737 98.4051 60.9664C98.7656 61.0591 99.3161 61.1664 99.623 61.2102C99.93 61.2493 100.422 61.298 100.719 61.3127C101.011 61.3273 101.562 61.3175 101.937 61.2883C102.312 61.2639 102.829 61.2054 103.082 61.1615C103.335 61.1176 103.798 61.0201 104.105 60.9469C104.412 60.8689 104.894 60.7274 105.177 60.625C105.459 60.5275 105.907 60.3519 106.175 60.2349C106.443 60.1178 106.901 59.8886 107.198 59.7228C107.491 59.557 107.91 59.3132 108.124 59.1718C108.338 59.0352 108.723 58.7621 108.977 58.5622C109.23 58.3622 109.61 58.0452 109.824 57.855C110.034 57.6648 110.414 57.2698 110.667 56.9723C110.925 56.6749 111.305 56.1725 111.52 55.8507C111.734 55.5288 112.026 55.0363 112.167 54.7534C112.309 54.4706 112.504 54.0219 112.606 53.7537C112.703 53.4854 112.84 53.066 112.898 52.8271C112.962 52.5881 113.005 52.3833 113.005 52.3784C113 52.3735 112.182 52.0858 111.193 51.7347C110.199 51.3884 109.298 51.0666 109.181 51.0276L108.977 50.9495C108.757 51.3836 108.562 51.7103 108.402 51.9493C108.241 52.1882 107.939 52.5832 107.729 52.8271C107.515 53.066 107.145 53.4269 106.906 53.6269C106.663 53.8268 106.268 54.1194 106.029 54.2804C105.786 54.4364 105.284 54.7193 104.909 54.9046C104.534 55.0899 103.998 55.3142 103.715 55.4069C103.433 55.4995 103.004 55.6117 102.765 55.6605C102.444 55.7288 102.122 55.7483 101.547 55.7483C100.865 55.7434 100.705 55.7288 100.281 55.6117C100.013 55.5434 99.5938 55.3874 99.3551 55.2704C99.1115 55.1533 98.7364 54.9241 98.5123 54.7583C98.2931 54.5974 98.1128 54.4462 98.1128 54.4218C98.1177 54.4023 101.231 52.8076 105.04 50.8764C108.845 48.9452 111.973 47.3456 111.982 47.3163C111.992 47.2871 111.88 46.9506 111.729 46.5604C111.578 46.1703 111.305 45.5461 111.125 45.1706C110.945 44.795 110.638 44.2245 110.443 43.9026C110.248 43.5807 109.926 43.0979 109.732 42.8297C109.537 42.5615 109.201 42.1421 108.991 41.9031C108.782 41.6593 108.377 41.2594 108.1 41.0058C107.817 40.7571 107.291 40.3572 106.93 40.1134C106.57 39.8744 106.044 39.5672 105.761 39.4306C105.479 39.2941 104.962 39.0892 104.616 38.9722C104.266 38.8551 103.764 38.7186 103.496 38.6649C103.228 38.6113 102.794 38.543 102.531 38.5186C102.273 38.4894 101.737 38.4699 101.338 38.4748C100.943 38.4748 100.544 38.4894 100.451 38.4991ZM175.718 38.543C175.571 38.5528 175.23 38.5869 174.963 38.6162C174.695 38.6454 174.222 38.7186 173.915 38.7869C173.608 38.8503 173.111 38.9771 172.819 39.0697C172.522 39.1624 172.04 39.3428 171.747 39.4647C171.45 39.5867 171.002 39.8012 170.749 39.9329C170.495 40.0695 170.042 40.3426 169.75 40.5376C169.453 40.7327 169.029 41.0448 168.8 41.2301C168.576 41.4106 168.191 41.7617 167.947 42.0007C167.709 42.2445 167.358 42.6298 167.178 42.8541C166.993 43.0833 166.691 43.4978 166.501 43.7807C166.315 44.0635 166.008 44.6 165.828 44.9755C165.643 45.351 165.404 45.9265 165.297 46.2532C165.185 46.5848 165.044 47.1213 164.976 47.448C164.912 47.7796 164.834 48.2868 164.8 48.5843C164.766 48.911 164.756 49.4329 164.771 49.9254C164.791 50.3692 164.834 50.9495 164.878 51.2178C164.917 51.486 165.02 51.9785 165.102 52.315C165.185 52.6515 165.351 53.1977 165.473 53.5342C165.594 53.8707 165.828 54.4267 165.994 54.7778C166.16 55.124 166.447 55.6654 166.632 55.9726C166.817 56.2798 167.168 56.7968 167.407 57.1186C167.65 57.4405 168.113 57.9672 168.435 58.2891C168.756 58.6109 169.229 59.0303 169.482 59.2254C169.735 59.4156 170.13 59.6887 170.359 59.8301C170.588 59.9716 171.036 60.2105 171.358 60.3666C171.679 60.5226 172.21 60.7372 172.536 60.8445C172.868 60.9567 173.404 61.0981 173.73 61.1664C174.061 61.2298 174.583 61.3078 174.889 61.3419C175.235 61.3761 175.791 61.3907 176.351 61.3712C176.848 61.3565 177.471 61.3078 177.739 61.2639C178.007 61.2249 178.465 61.1322 178.762 61.0591C179.055 60.9908 179.576 60.8396 179.917 60.7226C180.263 60.6055 180.774 60.4007 181.062 60.2739C181.354 60.1471 181.817 59.9082 182.099 59.7521C182.382 59.596 182.83 59.3181 183.098 59.1376C183.366 58.9572 183.77 58.6597 183.999 58.4793C184.228 58.2939 184.657 57.9038 184.949 57.6112C185.246 57.3137 185.631 56.8846 185.807 56.6553C185.987 56.4261 186.274 56.0214 186.45 55.7531C186.625 55.4849 186.903 54.9924 187.059 54.6559C187.219 54.3194 187.429 53.8171 187.522 53.5342C187.614 53.2514 187.721 52.8954 187.755 52.7442C187.794 52.593 187.814 52.4564 187.799 52.4467C187.785 52.4369 186.883 52.1199 185.787 51.7396C184.696 51.3592 183.8 51.0519 183.79 51.0568C183.78 51.0666 183.688 51.2226 183.585 51.4128C183.483 51.5981 183.312 51.8859 183.205 52.0468C183.098 52.2077 182.874 52.5052 182.708 52.7052C182.538 52.9051 182.246 53.2172 182.056 53.3977C181.866 53.583 181.529 53.8658 181.305 54.0268C181.086 54.1926 180.696 54.4462 180.443 54.5974C180.19 54.7485 179.771 54.968 179.517 55.085C179.264 55.2021 178.835 55.3728 178.568 55.4654C178.3 55.5532 177.915 55.6605 177.715 55.7044C177.515 55.7483 177.135 55.8019 176.872 55.8263C176.565 55.8604 176.234 55.8604 175.922 55.8263C175.664 55.8019 175.274 55.7336 175.06 55.68C174.846 55.6264 174.451 55.4752 174.183 55.3435C173.915 55.2167 173.53 54.9875 173.331 54.8363C173.131 54.6803 172.965 54.534 172.965 54.5047C172.965 54.4754 176.083 52.871 179.893 50.9349C186.089 47.7845 186.82 47.4041 186.796 47.3163C186.781 47.2627 186.654 46.9311 186.523 46.5848C186.386 46.2337 186.128 45.6436 185.948 45.2681C185.763 44.8926 185.456 44.322 185.261 44.0001C185.071 43.6783 184.769 43.215 184.594 42.976C184.418 42.7371 184.107 42.3372 183.902 42.0982C183.692 41.8544 183.371 41.513 183.191 41.3374C183.006 41.1619 182.679 40.879 182.465 40.7083C182.25 40.5376 181.89 40.2743 181.661 40.128C181.432 39.9768 181.028 39.7427 180.76 39.6013C180.492 39.4647 180.053 39.2697 179.785 39.1721C179.517 39.0746 179.055 38.9283 178.762 38.8503C178.465 38.7771 177.998 38.6796 177.715 38.6406C177.432 38.6016 176.931 38.5625 176.594 38.5479C176.258 38.5382 175.864 38.5333 175.718 38.543Z" fill="white"/>
<path d="M100.867 44.0051C100.784 44.0149 100.556 44.049 100.356 44.0783C100.156 44.1075 99.8053 44.1953 99.5763 44.2685C99.3474 44.3416 98.9771 44.4977 98.7481 44.6098C98.5192 44.7269 98.2123 44.8976 98.0661 45C97.92 45.0975 97.6569 45.3023 97.4815 45.4486C97.3062 45.5949 97.0139 45.8973 96.8336 46.1265C96.6241 46.3801 96.4 46.741 96.2393 47.0726C96.0834 47.3847 95.9324 47.7846 95.8739 48.0236C95.8203 48.2528 95.7619 48.6234 95.7472 48.8526C95.7277 49.0818 95.7375 49.4915 95.7716 49.7695C95.8008 50.0426 95.8349 50.2669 95.8495 50.2669C95.8642 50.2669 97.8615 49.2574 100.297 48.0187C102.728 46.7849 104.726 45.7656 104.74 45.7559C104.755 45.7413 104.677 45.6291 104.57 45.5023C104.463 45.3755 104.219 45.1463 104.034 44.9902C103.844 44.8342 103.478 44.6001 103.206 44.4684C102.938 44.3367 102.587 44.1953 102.426 44.1514C102.265 44.1124 101.934 44.0539 101.695 44.0246C101.457 44.0002 101.203 43.9807 101.135 43.9856C101.067 43.9856 100.95 44.0003 100.867 44.0051ZM175.257 44.127C175.096 44.1514 174.799 44.2197 174.599 44.2734C174.399 44.3319 174.034 44.4635 173.795 44.5708C173.557 44.6732 173.147 44.8976 172.894 45.0683C172.641 45.2389 172.246 45.5608 172.022 45.7851C171.798 46.0095 171.501 46.3704 171.355 46.5849C171.213 46.7995 171.014 47.175 170.916 47.414C170.819 47.6529 170.692 48.0626 170.643 48.3162C170.565 48.6966 170.551 48.9014 170.57 49.4378C170.585 49.7987 170.609 50.145 170.624 50.2084C170.638 50.2669 170.668 50.3157 170.687 50.3157C170.712 50.3157 172.699 49.3159 175.111 48.0919C177.522 46.8678 179.515 45.8485 179.544 45.829C179.573 45.8047 179.441 45.634 179.203 45.3999C178.988 45.1853 178.647 44.9073 178.448 44.7756C178.248 44.6489 177.951 44.4879 177.79 44.4245C177.629 44.3562 177.342 44.2636 177.157 44.21C176.933 44.1466 176.601 44.1124 176.182 44.0978C175.832 44.088 175.418 44.0978 175.257 44.127ZM125.079 44.7074C124.918 44.7366 124.612 44.8 124.397 44.8537C124.183 44.9073 123.822 45.0341 123.593 45.1365C123.364 45.2389 123.014 45.4291 122.814 45.5608C122.614 45.6925 122.259 45.9851 122.03 46.2143C121.796 46.4435 121.508 46.7898 121.391 46.9751C121.27 47.1653 121.114 47.4335 121.041 47.5749C120.972 47.7115 120.851 48.0187 120.768 48.2577C120.69 48.4918 120.592 48.8916 120.553 49.1452C120.51 49.3988 120.476 49.8963 120.476 50.2425C120.476 50.6083 120.51 51.0716 120.553 51.3398C120.597 51.5934 120.685 51.9689 120.753 52.1688C120.817 52.3688 120.953 52.7102 121.055 52.9247C121.158 53.1393 121.377 53.4904 121.538 53.705C121.693 53.9196 121.966 54.2268 122.137 54.3829C122.307 54.5389 122.58 54.7584 122.741 54.8657C122.902 54.9779 123.199 55.1485 123.398 55.2461C123.598 55.3436 123.939 55.4802 124.154 55.5484C124.368 55.6167 124.685 55.6996 124.86 55.7338C125.035 55.7679 125.474 55.7971 125.834 55.7971C126.195 55.7971 126.658 55.7679 126.857 55.7338C127.057 55.6996 127.398 55.6167 127.612 55.5484C127.827 55.4802 128.212 55.3192 128.465 55.1875C128.718 55.0608 129.103 54.812 129.317 54.6414C129.532 54.4707 129.81 54.2122 129.931 54.0659C130.053 53.9196 130.263 53.6367 130.394 53.4368C130.521 53.2368 130.701 52.8955 130.794 52.6809C130.881 52.4663 130.993 52.1396 131.047 51.9494C131.096 51.7641 131.164 51.4227 131.193 51.1935C131.232 50.9204 131.247 50.501 131.227 49.9743C131.213 49.5061 131.169 49.0184 131.12 48.8039C131.076 48.6039 130.969 48.2528 130.886 48.0236C130.798 47.7944 130.638 47.4432 130.521 47.2433C130.409 47.0434 130.18 46.7166 130.009 46.5167C129.844 46.3167 129.532 46.0095 129.313 45.8339C129.093 45.6584 128.713 45.4096 128.46 45.2828C128.207 45.156 127.871 45.0097 127.71 44.9561C127.549 44.9073 127.242 44.8244 127.028 44.7805C126.813 44.7366 126.356 44.6879 126.005 44.683C125.654 44.6732 125.24 44.683 125.079 44.7074ZM151.654 44.6879C151.586 44.6976 151.376 44.7318 151.191 44.761C151.006 44.7903 150.675 44.8732 150.46 44.9366C150.246 45.0049 149.861 45.1658 149.608 45.2975C149.354 45.4243 148.96 45.6827 148.731 45.8632C148.502 46.0485 148.166 46.3801 147.986 46.6093C147.781 46.8629 147.552 47.2287 147.386 47.5603C147.245 47.8578 147.07 48.3064 147.006 48.56C146.938 48.8136 146.86 49.2086 146.831 49.4378C146.807 49.6671 146.782 50.0182 146.782 50.2181C146.782 50.4181 146.807 50.7692 146.831 50.9984C146.855 51.2276 146.933 51.6324 147.001 51.9006C147.075 52.1932 147.23 52.6029 147.386 52.9247C147.552 53.2564 147.781 53.6172 147.986 53.8708C148.166 54.1 148.502 54.4365 148.731 54.617C148.96 54.8023 149.33 55.051 149.559 55.168C149.788 55.2851 150.173 55.446 150.412 55.5289C150.65 55.607 151.079 55.7094 151.362 55.7484C151.644 55.7923 152.019 55.8264 152.204 55.8264C152.385 55.8264 152.701 55.802 152.911 55.7728C153.115 55.7435 153.461 55.6801 153.676 55.6265C153.89 55.5728 154.294 55.4168 154.577 55.2851C154.859 55.1485 155.23 54.9388 155.405 54.812C155.58 54.6852 155.882 54.417 156.082 54.2171C156.277 54.0171 156.535 53.7099 156.652 53.5343C156.764 53.3588 156.935 53.0515 157.027 52.8516C157.12 52.6516 157.246 52.3444 157.3 52.1688C157.358 51.9933 157.441 51.6665 157.485 51.4373C157.544 51.1545 157.568 50.7741 157.568 50.2425C157.568 49.7012 157.544 49.3354 157.49 49.0477C157.441 48.8185 157.349 48.4576 157.276 48.243C157.203 48.0285 157.081 47.7212 157.003 47.5603C156.92 47.3994 156.759 47.1263 156.647 46.9507C156.53 46.7751 156.277 46.4679 156.082 46.2679C155.882 46.0631 155.58 45.7949 155.405 45.673C155.23 45.5462 154.913 45.3609 154.699 45.2536C154.484 45.1463 154.172 45.0097 154.007 44.9561C153.836 44.8976 153.539 44.8195 153.349 44.7756C153.154 44.7318 152.721 44.6927 152.385 44.683C152.048 44.6732 151.722 44.6732 151.654 44.6879Z" fill="#030304"/>
</g>
<defs>
<clipPath id="clip0_643_1968">
<rect width="203" height="88" fill="white"/>
</clipPath>
</defs>
</svg>
